# xmcd
#
# Track frame offsets: 
#        150
#        19815
#        37819
#        55267
#        73942
#        93131
#        113137
#        129595
#        147762
#        167038
#        191439
#        210875
#        227639
#        242184
#        262347
#        280402
#        295151
#        309177
#
# Disc length: 4323 seconds
#
# Revision: 0
# Processed by: cddbd v1.5.2PL0 Copyright (c) Steve Scherf et al.
# Submitted via: ExactAudioCopyFreeDBPlugin 1.0
#
DISCID=0110e112
DTITLE=Shock - After Shock [Compilation]
DYEAR=2010
DGENRE=Funk
TTITLE0=Loosen Up
TTITLE1=Nite Life
TTITLE2=Let's Get Crackin ⁬[Live]
TTITLE3=Lies
TTITLE4=Work Your Body
TTITLE5=Just A Dream Away
TTITLE6=You Got My Number
TTITLE7=Slam Dunk 2010
TTITLE8=You Got The Love
TTITLE9=Hands Of Stone
TTITLE10=Shock
TTITLE11=Dance And Have Some Fun
TTITLE12=Can't Have All Of You
TTITLE13=Nite Life [1979]
TTITLE14=Let Your Body Do The Talkin
TTITLE15=It's Over
TTITLE16=Deen Writin So Long
TTITLE17=The Dog
EXTD=
EXTT0=
EXTT1=
EXTT2=
EXTT3=
EXTT4=
EXTT5=
EXTT6=
EXTT7=
EXTT8=
EXTT9=
EXTT10=
EXTT11=
EXTT12=
EXTT13=
EXTT14=
EXTT15=
EXTT16=
EXTT17=
PLAYORDER=
